<?xml version="1.0" encoding="utf-8"?>
<!-- Generator: Adobe Illustrator 18.0.0, SVG Export Plug-In . SVG Version: 6.00 Build 0)  -->
<!DOCTYPE svg PUBLIC "-//W3C//DTD SVG 1.1//EN" "http://www.w3.org/Graphics/SVG/1.1/DTD/svg11.dtd">
<svg version="1.1" id="Layer_1" xmlns="http://www.w3.org/2000/svg" xmlns:xlink="http://www.w3.org/1999/xlink" x="0px" y="0px"
	 viewBox="0 0 270 82" enable-background="new 0 0 270 82" xml:space="preserve">
<g>
	<path fill="#FFFFFF" d="M44.2,19h16.3L38.7,79.4H22.8L1,19h16.3l13.5,38.5L44.2,19z"/>
	<path fill="#FFFFFF" d="M81.3,79.4H65.9V19h15.5V79.4z"/>
	<path fill="#FFFFFF" d="M126.7,65.4v13.9h-14.9c-10.8,0-15.5-5.7-15.5-15.4v-31h-8.5V19h8.5V0.8h15.5V19h14.9v13.9h-14.9v27.7
		c0,2.8,0.7,4.8,4.4,4.8H126.7z"/>
	<path fill="#FFFFFF" d="M170.5,40c-1.1-5.4-4.9-8.8-11.2-8.8c-5.4,0-9.1,2.6-10.7,6.7H133c2.5-12.7,11.5-20.6,26.2-20.6
		c17.3,0,26.9,11,26.9,27.7v34.3h-15.5v-6.9c-2.8,4.6-7.6,8.1-16.9,8.1c-13.8,0-22-6.8-22-17.9c0-8.8,3.1-14.1,11.5-18
		c6-2.8,18-3.8,27.2-4.4V40z M147.3,60.9c0,2.9,2.2,6.1,9.1,6.1c8,0,14.3-4.4,14.3-12.1v-2c-8.8,0.6-17.2,1.3-20.1,2.8
		C148,57,147.3,58.3,147.3,60.9z"/>
	<path fill="#FFFFFF" d="M215.6,65.4v13.9h-7.5c-10.8,0-15.4-5.7-15.4-15.4V0.8h15.4v59.8c0,2.8,0.7,4.8,4.4,4.8H215.6z"/>
	<path fill="#FFFFFF" d="M218,59.8h15.5c0.7,4.7,6.2,6.8,11.2,6.8c3,0,7.6-0.7,7.6-4.7c0-2.5-1.8-3.9-5.4-4.7l-12.7-2.8
		c-6.6-1.5-14.9-6.7-14.9-18.5c0-11.8,10.7-18.6,23.1-18.6c12.3,0,22.4,5.9,23.4,19.6h-15.8c-0.8-3.9-4.2-5.6-8.1-5.6
		c-4.4,0-7,1.8-7.1,4.6c0,2.6,2.1,3.9,4.7,4.5l13.6,3c6.6,1.5,14.6,6.1,14.6,18.6c0,13.5-10.9,18.6-23.5,18.6
		C231.7,80.5,218.6,74.1,218,59.8z"/>
	<rect x="65.9" y="0.8" fill="#FFFFFF" width="15.5" height="13.7"/>
</g>
</svg>
